#!OML:ASF F:\VICON\USERDATA\INSTALL\rory3\rory3.ASF
:FULLY-SPECIFIED
:DEGREES
148
root 1.2037 15.1298 21.6652 -156.237 -0.452708 -169.659
lowerback 1.92111 3.07917 9.83868
upperback -5.14964 5.37187 3.08584
thorax -5.96142 2.50791 -2.61611
lowerneck -25.7474 -1.56614 -3.61604
upperneck 23.204 -1.09543 0.354103
head 11.9097 -0.857461 0.520856
rclavicle 5.48646e-014 -2.54444e-014
rhumerus -42.9653 24.0604 -91.6762
rradius 91.0101
rwrist -81.2496
rhand -7.03013 1.53494
rfingers 7.12502
rthumb 18.8418 -27.5725
lclavicle 5.48646e-014 -2.54444e-014
lhumerus -91.3779 1.70142 74.3042
lradius 68.175
lwrist 61.1571
lhand 8.46824 18.841
lfingers 7.12502
lthumb 33.6721 45.697
rfemur -19.9371 8.40794 37.194
rtibia 43.6067
rfoot -41.8479 -17.8699
rtoes 4.30549
lfemur -81.0037 -3.33388 -5.38381
ltibia 71.5073
lfoot -17.7435 8.77494
ltoes -18.2029
149
root 1.19912 15.1505 21.4535 -155.669 0.102729 -169.799
lowerback 1.66934 3.58602 9.24339
upperback -5.49718 5.97185 2.59552
thorax -6.11439 2.79813 -2.82418
lowerneck -26.5995 -2.09027 -3.73353
upperneck 24 -1.95123 0.992927
head 12.4094 -1.16629 0.623912
rclavicle 1.77912e-014 3.93594e-014
rhumerus -42.9506 24.7822 -92.3377
rradius 94.0874
rwrist -81.8792
rhand -4.3442 0.821545
rfingers 7.12502
rthumb 21.4234 -28.014
lclavicle 1.77912e-014 3.93594e-014
lhumerus -93.1547 2.24042 72.2915
lradius 71.1577
lwrist 62.094
lhand 13.4175 16.6453
lfingers 7.12502
lthumb 38.36 42.3457
rfemur -19.3731 8.2188 36.8161
rtibia 43.0533
rfoot -40.9945 -17.4454
rtoes 3.8336
lfemur -82.0071 -2.90633 -5.50482
ltibia 68.6806
lfoot -15.4129 6.74419
ltoes -16.725
150
root 1.20469 15.1995 21.2367 -155.308 1.22903 -170.279
lowerback 1.19893 4.22642 7.81469
upperback -5.54811 6.624 2.0772
thorax -5.88892 3.16514 -2.57197
lowerneck -26.8403 -2.6289 -3.89027
upperneck 24.2594 -2.84041 1.63263
head 12.5958 -1.48311 0.730097
rclavicle -3.8763e-014 -1.78906e-014
rhumerus -42.86 25.6334 -93.0081
rradius 97.0649
rwrist -83.7492
rhand -2.78897 1.33604
rfingers 7.12502
rthumb 22.9165 -27.3221
lclavicle -3.8763e-014 -1.78906e-014
lhumerus -94.3322 2.90862 70.295
lradius 74.7521
lwrist 64.3392
lhand 16.6605 16.5728
lfingers 7.12502
lthumb 41.4123 41.3567
rfemur -18.718 8.75145 35.9924
rtibia 42.6721
rfoot -39.8205 -17.6301
rtoes 3.23219
lfemur -82.4058 -2.22835 -6.27368
ltibia 65.7289
lfoot -12.3963 5.58134
ltoes -19.7145
151
root 1.22423 15.2743 21.0184 -154.68 2.55986 -171.208
lowerback 0.870439 4.81523 5.83153
upperback -6.06202 7.2471 1.2197
thorax -6.28629 3.51488 -2.40485
lowerneck -26.5247 -3.09779 -3.71114
upperneck 24.6008 -3.85252 2.31554
head 12.7163 -1.82977 0.775943
rclavicle 2.40529e-014 6.95746e-015
rhumerus -43.5033 25.9423 -94.3469
rradius 99.8896
rwrist -85.5138
rhand -1.33153 1.78913
rfingers 7.12502
rthumb 24.3144 -26.6887
lclavicle 2.40529e-014 6.95746e-015
lhumerus -95.6058 3.34829 67.8141
lradius 78.055
lwrist 66.1687
lhand 19.8935 16.5538
lfingers 7.12502
lthumb 44.4358 40.2722
rfemur -18.6035 10.2515 34.5924
rtibia 42.462
rfoot -39.0637 -16.847
rtoes 6.02076
lfemur -82.9061 -1.39793 -7.66781
ltibia 62.884
lfoot -9.44178 4.56
ltoes -21.7662
152
root 1.23416 15.351 20.7871 -154.511 2.97028 -171.658
lowerback 0.460896 5.0457 4.83161
upperback -6.14437 7.42905 0.679663
thorax -6.16304 3.63497 -2.3875
lowerneck -26.3045 -3.47683 -3.7018
upperneck 24.5642 -4.66233 3.10213
head 12.7115 -2.08113 0.928095
rclavicle -3.56073e-014 -3.61788e-014
rhumerus -43.6126 26.4501 -95.2263
rradius 102.27
rwrist -86.4252
rhand 0.646001 2.01386
rfingers 7.12502
rthumb 26.209 -26.1965
lclavicle -3.56073e-014 -3.61788e-014
lhumerus -96.1555 4.40846 65.5249
lradius 81.4437
lwrist 67.7037
lhand 22.7793 17.0964
lfingers 7.12502
lthumb 47.1148 39.7119
rfemur -17.9997 10.8362 33.9794
rtibia 42.1883
rfoot -38.5598 -15.0677
rtoes 10.2317
lfemur -83.0976 -0.993685 -8.56778
ltibia 60.635
lfoot -5.93458 3.25967
ltoes -22.3925
153
root 1.23016 15.4256 20.5374 -154.861 3.4305 -171.995
lowerback 0.0661337 5.29234 4.09125
upperback -5.76219 7.6026 0.261514
thorax -5.5446 3.7441 -2.34893
lowerneck -26.2034 -3.8584 -3.91602
upperneck 24.2116 -5.37405 4.00063
head 12.6187 -2.28983 1.17754
rclavicle 1.73937e-016 -1.73937e-015
rhumerus -43.1554 26.8312 -95.426
rradius 104.148
rwrist -86.9956
rhand 4.03006 1.67689
rfingers 7.12502
rthumb 29.4444 -26.0096
lclavicle 1.73937e-016 -1.73937e-015
lhumerus -95.8155 5.87413 63.7234
lradius 84.5669
lwrist 68.9795
lhand 26.2361 17.5508
lfingers 7.12502
lthumb 50.2935 38.618
rfemur -16.8677 9.74325 33.5954
rtibia 42.2081
rfoot -36.4331 -15.2633
rtoes 7.18412
lfemur -82.6929 -0.617094 -9.59254
ltibia 59.1105
lfoot -3.16773 2.29464
ltoes -24.7953
154
root 1.21489 15.4735 20.2814 -155.469 4.28195 -172.023
lowerback 0.205976 5.63267 3.60668
upperback -5.50646 7.96448 -0.135606
thorax -5.33226 3.92212 -2.49928
lowerneck -26.3602 -4.17768 -3.93412
upperneck 24.382 -6.06681 4.70183
head 12.7802 -2.50222 1.31667
rclavicle 7.01337e-014 -2.43511e-015
rhumerus -43.0489 26.8795 -95.6764
rradius 105.585
rwrist -87.2598
rhand 9.59526 1.3764
rfingers 7.12502
rthumb 34.7424 -25.2394
lclavicle 7.01337e-014 -2.43511e-015
lhumerus -94.9853 7.34799 62.2101
lradius 87.1638
lwrist 70.0656
lhand 30.0066 17.5449
lfingers 7.12502
lthumb 53.7129 36.5752
rfemur -15.283 7.9177 33.4763
rtibia 42.48
rfoot -33.0386 -16.9336
rtoes -0.901405
lfemur -82.1832 0.112647 -10.3895
ltibia 58.5614
lfoot -1.2128 1.96561
ltoes -24.7445
